# xmcd
#
# Track frame offsets:
#	182
#	23995
#	45642
#	68900
#	91075
#	112527
#	131492
#	153097
#	172477
#	196260
#	219747
#
# Disc length: 3130 seconds
#
# Revision: 0
# Processed by: cddbd v1.4PL0 Copyright (c) Steve Scherf et al.
# Submitted via: audiograbber 1.80.04
#
DISCID=8f0c380b
DTITLE=Cristopher Williams - Not A Perfect Man
DYEAR=1994
DGENRE=R&B
TTITLE0=Cristopher Williams - If You Say
TTITLE1=Cristopher Williams - Learning To Love Again
TTITLE2=Cristopher Williams - Dance 4 Me
TTITLE3=Cristopher Williams - R U Ready
TTITLE4=Cristopher Williams - Oh Girl
TTITLE5=Cristopher Williams - Lonely
TTITLE6=Cristopher Williams - Solidarity
TTITLE7=Cristopher Williams - Never Stop
TTITLE8=Cristopher Williams - Not A Perfect Man
TTITLE9=Cristopher Williams - Down On My Knees
TTITLE10=Cristopher Williams - We Don't Know How To Say Goodbye
EXTD=
EXTT0=
EXTT1=
EXTT2=
EXTT3=
EXTT4=
EXTT5=
EXTT6=
EXTT7=
EXTT8=
EXTT9=
EXTT10=
PLAYORDER=
